<svg width="760" height="520" viewBox="0 0 760 520" fill="none" xmlns="http://www.w3.org/2000/svg">
  <defs>
    <linearGradient id="insightBg" x1="88" y1="48" x2="662" y2="448" gradientUnits="userSpaceOnUse">
      <stop stop-color="#E0F2FE"/>
      <stop offset="1" stop-color="#FFF7ED"/>
    </linearGradient>
    <linearGradient id="insightAccent" x1="188" y1="146" x2="560" y2="378" gradientUnits="userSpaceOnUse">
      <stop stop-color="#0EA5E9"/>
      <stop offset="1" stop-color="#F97316"/>
    </linearGradient>
  </defs>
  <rect width="760" height="520" rx="32" fill="url(#insightBg)"/>
  <rect x="56" y="58" width="224" height="168" rx="24" fill="white"/>
  <rect x="304" y="58" width="400" height="168" rx="24" fill="#0F172A"/>
  <rect x="56" y="248" width="328" height="214" rx="24" fill="#ECFEFF"/>
  <rect x="408" y="248" width="296" height="214" rx="24" fill="white"/>
  <path d="M92 182L122 152L152 166L198 112L238 134" stroke="url(#insightAccent)" stroke-width="12" stroke-linecap="round" stroke-linejoin="round"/>
  <path d="M336 188H646" stroke="#38BDF8" stroke-width="16" stroke-linecap="round"/>
  <path d="M336 150H606" stroke="#CBD5E1" stroke-width="16" stroke-linecap="round"/>
  <path d="M94 304H278" stroke="#0F172A" stroke-width="16" stroke-linecap="round"/>
  <path d="M94 342H340" stroke="#94A3B8" stroke-width="14" stroke-linecap="round"/>
  <path d="M446 402L490 364L526 386L570 320L624 342" stroke="#0EA5E9" stroke-width="12" stroke-linecap="round" stroke-linejoin="round"/>
  <circle cx="490" cy="364" r="9" fill="#0EA5E9"/>
  <circle cx="570" cy="320" r="9" fill="#0EA5E9"/>
</svg>
